<svg viewBox="0 0 640 640" xmlns="http://www.w3.org/2000/svg" xmlns:xlink="http://www.w3.org/1999/xlink"><style>:root&gt;svg{display:none}:root&gt;svg:target{display:block}</style><svg viewBox="0 0 50 50" id="arrow-long" xmlns="http://www.w3.org/2000/svg"><path d="M1 26h43.586l-6.293 6.293 1.414 1.414L48.414 25l-8.707-8.707-1.414 1.414L44.586 24H1z"/></svg><svg viewBox="0 0 469.333 469.333" id="cart" xmlns="http://www.w3.org/2000/svg"><path d="M434.979 42.667H85.333v3.061l-4.375-14.999C75.687 12.635 58.844 0 40 0H10.667C4.771 0 0 4.771 0 10.667s4.771 10.667 10.667 10.667H40c9.427 0 17.844 6.313 20.479 15.365l66.396 227.635-34.021 42.521a34.48 34.48 0 00-7.521 21.458c0 18.948 15.406 34.354 34.354 34.354H416A10.66 10.66 0 00426.667 352 10.66 10.66 0 00416 341.333H119.687c-7.177 0-13.021-5.844-13.021-13.021 0-2.948 1.01-5.844 2.854-8.135l34.279-42.844H353.02c16.448 0 31.604-9.615 38.615-24.5l74.438-158.177a34.636 34.636 0 003.26-14.615V77.02c0-18.947-15.406-34.353-34.354-34.353zM448 80.042c0 1.906-.427 3.823-1.24 5.542L372.333 243.75c-3.51 7.438-11.083 12.25-19.313 12.25H146.667L90.663 64h344.316C442.156 64 448 69.844 448 77.021v3.021zM128 384c-23.531 0-42.667 19.135-42.667 42.667s19.135 42.667 42.667 42.667 42.667-19.135 42.667-42.667S151.531 384 128 384zm0 64c-11.76 0-21.333-9.573-21.333-21.333 0-11.76 9.573-21.333 21.333-21.333 11.76 0 21.333 9.573 21.333 21.333 0 11.76-9.573 21.333-21.333 21.333zm256-64c-23.531 0-42.667 19.135-42.667 42.667s19.135 42.667 42.667 42.667 42.667-19.135 42.667-42.667S407.531 384 384 384zm0 64c-11.76 0-21.333-9.573-21.333-21.333 0-11.76 9.573-21.333 21.333-21.333 11.76 0 21.333 9.573 21.333 21.333 0 11.76-9.573 21.333-21.333 21.333z"/></svg><svg viewBox="0 0 18 14" id="check" xmlns="http://www.w3.org/2000/svg"><path d="M1 7l6 6L17 1"/></svg><svg viewBox="0 0 491.996 491.996" id="chevron" xmlns="http://www.w3.org/2000/svg"><path d="M484.132 124.986l-16.116-16.228c-5.072-5.068-11.82-7.86-19.032-7.86-7.208 0-13.964 2.792-19.036 7.86l-183.84 183.848L62.056 108.554c-5.064-5.068-11.82-7.856-19.028-7.856s-13.968 2.788-19.036 7.856l-16.12 16.128c-10.496 10.488-10.496 27.572 0 38.06l219.136 219.924c5.064 5.064 11.812 8.632 19.084 8.632h.084c7.212 0 13.96-3.572 19.024-8.632l218.932-219.328c5.072-5.064 7.856-12.016 7.864-19.224 0-7.212-2.792-14.068-7.864-19.128z"/></svg><svg viewBox="0 0 443.294 443.294" id="clock" xmlns="http://www.w3.org/2000/svg"><path d="M221.647 0C99.433 0 0 99.433 0 221.647s99.433 221.647 221.647 221.647 221.647-99.433 221.647-221.647S343.861 0 221.647 0zm0 415.588c-106.941 0-193.941-87-193.941-193.941s87-193.941 193.941-193.941 193.941 87 193.941 193.941-87 193.941-193.941 193.941z"/><path d="M235.5 83.118h-27.706v144.265l87.176 87.176 19.589-19.589-79.059-79.059z"/></svg><svg viewBox="0 0 512 512" id="clock-2" xmlns="http://www.w3.org/2000/svg"><path d="M256 0C114.836 0 0 114.836 0 256s114.836 256 256 256 256-114.836 256-256S397.164 0 256 0zm121.75 388.414a21.277 21.277 0 01-15.082 6.254 21.27 21.27 0 01-15.082-6.254L240.918 281.75a21.237 21.237 0 01-6.25-15.082V128c0-11.797 9.555-21.332 21.332-21.332s21.332 9.535 21.332 21.332v129.836L377.75 358.25c8.34 8.344 8.34 21.824 0 30.164zm0 0"/></svg><svg viewBox="0 0 512 512" id="clock-fill" xmlns="http://www.w3.org/2000/svg"><path d="M256 0C114.836 0 0 114.836 0 256s114.836 256 256 256 256-114.836 256-256S397.164 0 256 0zm121.75 388.414a21.277 21.277 0 01-15.082 6.254 21.27 21.27 0 01-15.082-6.254L240.918 281.75a21.237 21.237 0 01-6.25-15.082V128c0-11.797 9.555-21.332 21.332-21.332s21.332 9.535 21.332 21.332v129.836L377.75 358.25c8.34 8.344 8.34 21.824 0 30.164zm0 0"/></svg><svg viewBox="0 0 16 16" id="close" xmlns="http://www.w3.org/2000/svg"><path d="M9.175 8l6.075-6.075A.833.833 0 0014.075.75L8 6.825 1.925.742A.833.833 0 00.75 1.917L6.825 8 .742 14.075a.834.834 0 101.175 1.175L8 9.175l6.075 6.075a.833.833 0 001.175-1.175L9.175 8z"/></svg><svg viewBox="0 0 480 480" id="coupon" xmlns="http://www.w3.org/2000/svg"><path d="M144 264h16v16h-16zm0 32h16v16h-16zm0 32h16v16h-16zm0-96h16v16h-16zm0-32h16v16h-16zm0-32h16v16h-16zm0-32h16v16h-16zm-112 0h16v16H32zm400 0h16v16h-16zm0 192h16v16h-16zm-400 0h16v16H32z"/><path d="M472 200a8 8 0 008-8v-80a8 8 0 00-8-8H8a8 8 0 00-8 8v80a8 8 0 008 8c22.091 0 40 17.909 40 40s-17.909 40-40 40a8 8 0 00-8 8v80a8 8 0 008 8h464a8 8 0 008-8v-80a8 8 0 00-8-8c-22.091 0-40-17.909-40-40s17.909-40 40-40zm-55.476 47.956c3.532 24.61 22.867 43.944 47.476 47.476V360H16v-64.568c30.614-4.394 51.87-32.773 47.476-63.388C59.944 207.435 40.61 188.1 16 184.568V120h448v64.568c-30.614 4.394-51.87 32.773-47.476 63.388z"/><path d="M240 160c-17.673 0-32 14.327-32 32s14.327 32 32 32c17.673 0 32-14.327 32-32s-14.327-32-32-32zm0 48c-8.837 0-16-7.163-16-16s7.163-16 16-16 16 7.163 16 16-7.163 16-16 16zm96 48c-17.673 0-32 14.327-32 32 0 17.673 14.327 32 32 32 17.673 0 32-14.327 32-32 0-17.673-14.327-32-32-32zm0 48c-8.837 0-16-7.163-16-16s7.163-16 16-16 16 7.163 16 16-7.163 16-16 16zm-117.656-5.676l127.997-127.997 11.314 11.314-127.997 127.997z"/></svg><svg viewBox="0 0 20 21" id="filter" xmlns="http://www.w3.org/2000/svg"><path d="M10 5c4.97 0 9-.895 9-2s-4.03-2-9-2-9 .895-9 2 4.03 2 9 2z"/><path d="M1 3c0 2.23 3.871 6.674 5.856 8.805A4.197 4.197 0 018 14.657V20l4-2v-3.343c0-1.061.421-2.075 1.144-2.852C15.13 9.674 19 5.231 19 3"/></svg><svg viewBox="0 0 512 512" id="heart" xmlns="http://www.w3.org/2000/svg"><path d="M378.667 21.333c-56.792 0-103.698 52.75-122.667 77.646-18.969-24.896-65.875-77.646-122.667-77.646C59.813 21.333 0 88.927 0 172c0 45.323 17.99 87.562 49.479 116.469a10.54 10.54 0 001.677 2.177l197.313 196.906c2.083 2.073 4.802 3.115 7.531 3.115s5.458-1.042 7.542-3.125L467.417 283.74l2.104-2.042c1.667-1.573 3.313-3.167 5.156-5.208a10.372 10.372 0 001.896-2.542C499.438 245.948 512 209.833 512 172c0-83.073-59.812-150.667-133.333-150.667zm80.156 240.615a9.929 9.929 0 00-.802 1.083c-1 1.146-2.094 2.156-3.177 3.188L255.99 464.927 68.667 277.979a10.706 10.706 0 00-2.479-3.177C37.677 249.906 21.333 212.437 21.333 172c0-71.313 50.24-129.333 112-129.333 61.063 0 113.177 79.646 113.698 80.448 3.938 6.083 14 6.083 17.938 0 .521-.802 52.635-80.448 113.698-80.448 61.76 0 112 58.021 112 129.333 0 33.604-11.313 65.552-31.844 89.948z"/></svg><svg viewBox="0 0 64 64" id="invoice" xmlns="http://www.w3.org/2000/svg"><path d="M50 2H18a5.006 5.006 0 00-5 5v45H9v5a5.006 5.006 0 005 5h28a5.006 5.006 0 005-5V22h7a1 1 0 001-1V7a5.006 5.006 0 00-5-5zM14 60a3 3 0 01-3-3v-3h26v3a4.98 4.98 0 001 3zM45 7v50a3 3 0 01-6 0v-5H15V7a3 3 0 013-3h28a4.98 4.98 0 00-1 3zm8 13h-6V7a3 3 0 016 0z"/><path d="M36 36h-2v2h-3v6h6v2h-6v2h3v2h2v-2h3v-6h-6v-2h6v-2h-3zm-10 0h-2v2h-3v6h6v2h-6v2h3v2h2v-2h3v-6h-6v-2h6v-2h-3zM21 6h11v2H21zm13 0h6v2h-6zm-15 4h23v2H19zm-2 5h14v2H17zm0 4h17v2H17zm0 4h10v2H17zm0 4h12v2H17zm0 4h12v2H17zm22-16h4v2h-4zm0 4h4v2h-4zm0 4h4v2h-4zm0 4h4v2h-4zm0 4h4v2h-4z"/></svg><svg viewBox="0 0 32 32" id="location" xmlns="http://www.w3.org/2000/svg"><path d="M16 2A11.013 11.013 0 005 13a10.889 10.889 0 002.216 6.6s.3.395.349.452L16 30l8.439-9.953c.044-.053.345-.447.345-.447l.001-.003A10.885 10.885 0 0027 13 11.013 11.013 0 0016 2zm0 15a4 4 0 110-8 4 4 0 010 8z"/></svg><svg viewBox="0 0 20 16" id="mail" xmlns="http://www.w3.org/2000/svg"><path d="M20 4.608v8.142a3.25 3.25 0 01-3.066 3.245L16.75 16H3.25a3.25 3.25 0 01-3.245-3.066L0 12.75V4.608l9.652 5.056a.75.75 0 00.696 0L20 4.608zM3.25 0h13.5a3.25 3.25 0 013.234 2.924L10 8.154.016 2.924A3.25 3.25 0 013.064.005L3.25 0h13.5-13.5z"/></svg><svg viewBox="0 0 480 480" id="money" xmlns="http://www.w3.org/2000/svg"><path d="M240 288c53.02 0 96-42.98 96-96s-42.98-96-96-96-96 42.98-96 96c.059 52.996 43.004 95.941 96 96zm0-176c44.184 0 80 35.816 80 80s-35.816 80-80 80-80-35.816-80-80c.047-44.164 35.836-79.953 80-80zm0 0"/><path d="M248 216h-16a8 8 0 01-8-8h-16c0 13.254 10.746 24 24 24v16h16v-16c13.254 0 24-10.746 24-24s-10.746-24-24-24h-16a8 8 0 010-16h16a8 8 0 018 8h16c0-13.254-10.746-24-24-24v-16h-16v16c-13.254 0-24 10.746-24 24s10.746 24 24 24h16a8 8 0 010 16zm176-72c13.254 0 24-10.746 24-24s-10.746-24-24-24-24 10.746-24 24 10.746 24 24 24zm0-32a8 8 0 110 16 8 8 0 010-16zm-60.687 16H384v-16h-24a8.001 8.001 0 00-5.656 2.344l-16 16 11.312 11.312zM424 272c13.254 0 24-10.746 24-24s-10.746-24-24-24-24 10.746-24 24 10.746 24 24 24zm0-32a8 8 0 110 16 8 8 0 010-16zm-72 0h32v16h-32zM56 144c13.254 0 24-10.746 24-24S69.254 96 56 96s-24 10.746-24 24 10.746 24 24 24zm0-32a8 8 0 110 16 8 8 0 010-16zm74.344 29.656l11.312-11.312-16-16A8.001 8.001 0 00120 112H96v16h20.688zM56 224c-13.254 0-24 10.746-24 24s10.746 24 24 24 24-10.746 24-24-10.746-24-24-24zm0 32a8 8 0 110-16 8 8 0 010 16zm40-16h32v16H96zm0 0"/><path d="M440 0H40C17.918.027.027 17.918 0 40v304c.027 22.082 17.918 39.973 40 40h134.938l-6 48H152c-13.254 0-24 10.746-24 24s10.746 24 24 24h176c13.254 0 24-10.746 24-24s-10.746-24-24-24h-16.938l-6-48H440c22.082-.027 39.973-17.918 40-40V40c-.027-22.082-17.918-39.973-40-40zM40 16h400c13.254 0 24 10.746 24 24v24H16V40c0-13.254 10.746-24 24-24zm424 64v224H16V80zM336 456a8 8 0 01-8 8H152a8 8 0 010-16h176a8 8 0 018 8zm-41.063-24H185.063l6-48h97.875zM440 368H40c-13.254 0-24-10.746-24-24v-24h448v24c0 13.254-10.746 24-24 24zm0 0"/><path d="M416 336h16v16h-16zM48 32h16v16H48zm32 0h16v16H80zm32 0h16v16h-16zm0 0"/></svg><svg viewBox="0 0 64 64" id="payment" xmlns="http://www.w3.org/2000/svg"><path d="M32 16a5 5 0 10-5-5 5.006 5.006 0 005 5zm0-8a3 3 0 11-3 3 3 3 0 013-3z"/><path d="M61.923 54.615L57 42.8V13a3 3 0 00-3-3h-6V4a2 2 0 00-2-2H18a2 2 0 00-2 2v6h-6a3 3 0 00-3 3v29.8L2.077 54.615A1 1 0 002 55v4a3 3 0 003 3h54a3 3 0 003-3v-4a1 1 0 00-.077-.385zM40.618 54L38.9 50.553A1 1 0 0038 50H26a1 1 0 00-.895.553L23.382 54H4.5l4.167-10h46.666L59.5 54zm-2.236 0H25.618l1-2h10.764zM22 24h-4v-1h4zm-4-8.874A4.007 4.007 0 0120.859 18H18zM22 21h-4v-1h4zm.877-4.121a2.946 2.946 0 00-.188.23A6.011 6.011 0 0018 13.09V8.91A6.008 6.008 0 0022.91 4h18.18A6.008 6.008 0 0046 8.91v4.18A6.008 6.008 0 0041.09 18H27.819a2.894 2.894 0 00-.7-1.111A2.973 2.973 0 0025 16a2.971 2.971 0 00-2.122.879zM28 21v-1h18v1zm-4-2a.991.991 0 01.293-.709.978.978 0 01.7-.293.9.9 0 01.722.306.988.988 0 01.3.7v4a1 1 0 001 1 4.88 4.88 0 012.326.584 4.4 4.4 0 01.43.253 5.051 5.051 0 011.873 2.258A4.862 4.862 0 0132 29l2 .013a6.838 6.838 0 00-.525-2.689c-.047-.112-.112-.213-.164-.322H40V36H26v-4a1 1 0 00-.105-.446L24 27.765zm7.872 5a6.973 6.973 0 00-1.015-.834c-.093-.061-.186-.109-.28-.166H46v1zm11.269-6A4 4 0 0146 15.142V18zM46 6.858A4 4 0 0143.142 4H46zM20.858 4A4 4 0 0118 6.858V4zM9 13a1 1 0 011-1h6v12a2 2 0 002 2h4v2a1 1 0 00.105.447L24 32.234V37a1 1 0 001 1h16a1 1 0 001-1V26h4a2 2 0 002-2V12h6a1 1 0 011 1v29H9zm50 47H5a1 1 0 01-1-1v-3h56v3a1 1 0 01-1 1z"/><path d="M10 50h2v2h-2zm4 0h2v2h-2zm34 0h2v2h-2zm4 0h2v2h-2zm-37-4h2v2h-2zm-4 0h2v2h-2zm8 0h2v2h-2zm4 0h2v2h-2zm4 0h2v2h-2zm4 0h2v2h-2zm4 0h2v2h-2zm4 0h2v2h-2zm4 0h2v2h-2zm4 0h2v2h-2zm4 0h2v2h-2zm-33 4h4v2h-4zm24 0h4v2h-4zM11 32h8v2h-8zm0 4h8v2h-8zm4-8h4v2h-4zm30 8h8v2h-8zm0-4h8v2h-8zm0-4h8v2h-8zm-34 0h2v2h-2z"/></svg><svg viewBox="0 0 512 512" id="payment-method" xmlns="http://www.w3.org/2000/svg"><path d="M172.55 391.902c-.13-.64-.32-1.27-.57-1.88-.25-.6-.56-1.18-.92-1.72a9.57 9.57 0 00-1.24-1.52 9.57 9.57 0 00-1.52-1.24 9.87 9.87 0 00-1.73-.92c-.6-.25-1.23-.45-1.87-.57a9.847 9.847 0 00-3.9 0c-.64.12-1.27.32-1.88.57-.6.25-1.18.56-1.72.92-.55.36-1.06.78-1.52 1.24-.46.46-.88.97-1.24 1.52-.37.54-.67 1.12-.92 1.72a9.69 9.69 0 00-.57 1.88c-.13.64-.2 1.3-.2 1.95 0 .65.07 1.31.2 1.95.12.64.32 1.27.57 1.87.25.61.55 1.19.92 1.73.36.55.78 1.06 1.24 1.52.46.46.97.88 1.52 1.24.54.361 1.12.671 1.72.921.61.25 1.24.45 1.88.57.64.13 1.3.2 1.95.2.65 0 1.31-.07 1.95-.2.64-.12 1.27-.32 1.87-.57.61-.25 1.19-.561 1.73-.921a9.57 9.57 0 001.52-1.24c.46-.46.88-.97 1.24-1.52.36-.54.67-1.12.92-1.73a10.098 10.098 0 00.77-3.82c0-.65-.07-1.31-.2-1.95z"/><path d="M459.993 394.982a9.705 9.705 0 00-.121-.297c-9.204-21.537-30.79-29.497-56.336-20.772l-69.668 19.266c-4.028-12.198-14.075-22.578-28.281-27.85a11.876 11.876 0 00-.265-.094l-76.581-25.992c-6.374-8.239-26.34-29.321-63.723-29.321-26.125 0-49.236 17.922-62.458 37.457H10c-5.523 0-10 4.477-10 10v126.077c0 5.523 4.477 10 10 10h59.457c5.523 0 10-4.477 10-10v-8.634h27.883c5.523 0 10-4.477 10-10v-2.878c16.254 1.418 21.6 4.501 36.528 13.109 11.48 6.62 28.831 16.625 60.077 30.674.145.065.292.127.439.185 5.997 2.359 17.72 6.065 32.173 6.065 10.06 0 21.445-1.797 33.131-7.094l153.991-55.136c.274-.098.544-.208.808-.33 14.717-6.771 36.648-25.854 25.506-54.435zM59.457 473.455H20V367.378h39.457v106.077zm37.883-18.634H79.457v-87.443H97.34v87.443zm329.156-23.747l-153.922 55.111a12.33 12.33 0 00-.854.348c-21.437 9.852-41.814 3.954-49.8.849-30.182-13.581-46.291-22.87-58.061-29.657-16.364-9.436-24.249-13.984-46.519-15.823V361.36c9.479-15.536 27.861-31.439 47.679-31.439 33.986 0 48.387 22.105 48.953 22.997a10 10 0 005.305 4.232l79.475 26.974c12.693 4.764 19.401 15.634 16.318 26.474a19.354 19.354 0 01-9.257 11.691 19.367 19.367 0 01-14.683 1.758l-89.593-28.392c-5.268-1.669-10.886 1.247-12.554 6.512-1.669 5.265 1.247 10.885 6.512 12.554l89.749 28.441c.095.03.19.059.286.086a39.657 39.657 0 0010.857 1.523c6.638 0 13.203-1.691 19.161-5.011 9.213-5.133 15.875-13.547 18.759-23.692.23-.81.434-1.62.611-2.43l75.083-20.8c10.844-3.704 25.079-5.039 31.417 9.558 6.56 17.137-10.49 26.564-14.922 28.678zM359.06 131.543c-.13-.64-.32-1.27-.58-1.88-.25-.6-.55-1.18-.92-1.72a9.57 9.57 0 00-1.24-1.52 9.57 9.57 0 00-1.52-1.24c-.54-.36-1.12-.67-1.72-.92a9.81 9.81 0 00-1.87-.57 9.898 9.898 0 00-3.91 0c-.64.12-1.27.32-1.87.57-.61.25-1.19.56-1.73.92-.55.36-1.06.78-1.52 1.24-.46.46-.88.97-1.24 1.52-.36.54-.67 1.12-.92 1.72a9.69 9.69 0 00-.57 1.88c-.13.64-.2 1.3-.2 1.95 0 .65.07 1.31.2 1.95.12.64.32 1.27.57 1.87.25.61.56 1.19.92 1.73.36.55.78 1.06 1.24 1.52.46.46.97.88 1.52 1.24.54.36 1.12.67 1.73.92.6.25 1.23.44 1.87.57s1.3.2 1.95.2c.65 0 1.31-.07 1.96-.2.63-.13 1.26-.32 1.87-.57.6-.25 1.18-.56 1.72-.92a9.57 9.57 0 001.52-1.24c.46-.46.88-.97 1.24-1.52.37-.54.67-1.12.92-1.73.26-.6.45-1.23.58-1.87.13-.64.19-1.3.19-1.95 0-.65-.06-1.31-.19-1.95z"/><path d="M502 33.891h-59.457c-5.523 0-10 4.477-10 10v8.634H404.66c-5.523 0-10 4.477-10 10v2.878c-16.254-1.419-21.6-4.501-36.527-13.109-11.48-6.62-28.831-16.625-60.078-30.674a8.51 8.51 0 00-.44-.185c-10.171-4.002-36.828-11.876-65.299 1.027l-40.24 14.408-33.919-33.918c-3.905-3.905-10.237-3.905-14.142 0L32.657 114.309c-3.602 3.603-4.293 9.85 0 14.143l190.287 190.287c3.045 3.046 10.175 3.967 14.143 0l101.665-101.664c2.643.228 5.386.351 8.229.351 26.126 0 49.236-17.922 62.457-37.456H502c5.523 0 10-4.477 10-10V43.891c0-5.523-4.477-10-10-10zm-350.915-9.726l22.792 22.792c-6.775 4.19-14.608 6.432-22.792 6.432-8.185 0-16.017-2.241-22.792-6.432l22.792-22.792zM76.663 144.173L53.871 121.38l22.792-22.792c4.19 6.775 6.432 14.608 6.432 22.792 0 8.184-2.241 16.017-6.432 22.793zm153.353 153.352l-22.788-22.788c13.913-8.586 31.661-8.586 45.575 0l-22.787 22.788zm37.195-37.194c-22.098-16.03-52.292-16.03-74.39 0L91.07 158.579c7.809-10.74 12.025-23.641 12.025-37.199 0-13.559-4.215-26.459-12.025-37.199l22.817-22.816c10.74 7.809 23.64 12.025 37.199 12.025 13.559 0 26.459-4.216 37.199-12.025l21.629 21.629a39.465 39.465 0 00-13.462 4.592c-7.168 3.994-12.792 9.975-16.294 17.211a56.985 56.985 0 00-29.915 15.741c-22.225 22.226-22.225 58.389.001 80.615 11.112 11.112 25.709 16.669 40.307 16.669 14.597 0 29.195-5.556 40.308-16.669 7.23-7.23 12.295-16.116 14.832-25.8l33.764 11.459c-3.801 17.608.092 36.132 10.593 50.682l-22.837 22.837zm-60.798-98.313c.088.032.176.064.265.094l19.996 6.787c-1.51 6.815-4.927 13.081-9.957 18.112-14.428 14.426-37.904 14.428-52.33 0-14.428-14.427-14.428-37.902 0-52.33a36.977 36.977 0 0112.062-8.048c1.846 15.362 12.907 29.055 29.964 35.385zm98.044 61.066a43.739 43.739 0 01-6.389-20.796 77.755 77.755 0 0017.636 9.549l-11.247 11.247zm90.202-57.101c-9.478 15.538-27.86 31.441-47.678 31.441-3.708 0-7.183-.264-10.432-.734l-.039-.006c-21.596-3.137-33.213-15.411-37.042-20.271-.204-.3-1.073-1.437-1.202-1.626a9.964 9.964 0 00-5.511-4.583l-79.508-26.985c-12.688-4.762-19.395-15.627-16.321-26.463l.006-.021.007-.025a19.355 19.355 0 019.247-11.656 19.351 19.351 0 0114.683-1.757l89.593 28.391c5.266 1.671 10.886-1.247 12.554-6.512 1.668-5.265-1.247-10.885-6.512-12.554l-71.255-22.58-.622-.622-.019-.019-36.89-36.89 31.708-11.354c.107-.039.239-.088.345-.131l.105-.042a9.59 9.59 0 00.403-.174c21.436-9.852 41.812-3.955 49.799-.849 30.183 13.581 46.293 22.87 58.063 29.657 16.364 9.437 24.249 13.984 46.518 15.823v80.542zm37.884-6.015H414.66V72.525h17.883v87.443zm59.457 0h-39.457V53.891H492v106.077z"/></svg><svg viewBox="0 0 32 32" id="phone" xmlns="http://www.w3.org/2000/svg"><path d="M21.18 2.92H10.82a2.9 2.9 0 00-2.9 2.9v20.36a2.9 2.9 0 002.9 2.9h10.36a2.9 2.9 0 002.9-2.9V5.82a2.9 2.9 0 00-2.9-2.9zm.74 23.26a.74.74 0 01-.74.74H10.82a.74.74 0 01-.74-.74V5.82a.74.74 0 01.74-.74h10.36a.74.74 0 01.74.74z"/><path d="M17 23.92h-2a1.08 1.08 0 000 2.16h2a1.08 1.08 0 000-2.16z"/></svg><svg viewBox="0 0 473.806 473.806" id="phone-call" xmlns="http://www.w3.org/2000/svg"><path d="M374.456 293.506c-9.7-10.1-21.4-15.5-33.8-15.5-12.3 0-24.1 5.3-34.2 15.4l-31.6 31.5c-2.6-1.4-5.2-2.7-7.7-4-3.6-1.8-7-3.5-9.9-5.3-29.6-18.8-56.5-43.3-82.3-75-12.5-15.8-20.9-29.1-27-42.6 8.2-7.5 15.8-15.3 23.2-22.8 2.8-2.8 5.6-5.7 8.4-8.5 21-21 21-48.2 0-69.2l-27.3-27.3c-3.1-3.1-6.3-6.3-9.3-9.5-6-6.2-12.3-12.6-18.8-18.6-9.7-9.6-21.3-14.7-33.5-14.7s-24 5.1-34 14.7l-.2.2-34 34.3c-12.8 12.8-20.1 28.4-21.7 46.5-2.4 29.2 6.2 56.4 12.8 74.2 16.2 43.7 40.4 84.2 76.5 127.6 43.8 52.3 96.5 93.6 156.7 122.7 23 10.9 53.7 23.8 88 26 2.1.1 4.3.2 6.3.2 23.1 0 42.5-8.3 57.7-24.8.1-.2.3-.3.4-.5 5.2-6.3 11.2-12 17.5-18.1 4.3-4.1 8.7-8.4 13-12.9 9.9-10.3 15.1-22.3 15.1-34.6 0-12.4-5.3-24.3-15.4-34.3l-54.9-55.1zm35.8 105.3c-.1 0-.1.1 0 0-3.9 4.2-7.9 8-12.2 12.2-6.5 6.2-13.1 12.7-19.3 20-10.1 10.8-22 15.9-37.6 15.9-1.5 0-3.1 0-4.6-.1-29.7-1.9-57.3-13.5-78-23.4-56.6-27.4-106.3-66.3-147.6-115.6-34.1-41.1-56.9-79.1-72-119.9-9.3-24.9-12.7-44.3-11.2-62.6 1-11.7 5.5-21.4 13.8-29.7l34.1-34.1c4.9-4.6 10.1-7.1 15.2-7.1 6.3 0 11.4 3.8 14.6 7l.3.3c6.1 5.7 11.9 11.6 18 17.9 3.1 3.2 6.3 6.4 9.5 9.7l27.3 27.3c10.6 10.6 10.6 20.4 0 31-2.9 2.9-5.7 5.8-8.6 8.6-8.4 8.6-16.4 16.6-25.1 24.4-.2.2-.4.3-.5.5-8.6 8.6-7 17-5.2 22.7l.3.9c7.1 17.2 17.1 33.4 32.3 52.7l.1.1c27.6 34 56.7 60.5 88.8 80.8 4.1 2.6 8.3 4.7 12.3 6.7 3.6 1.8 7 3.5 9.9 5.3.4.2.8.5 1.2.7 3.4 1.7 6.6 2.5 9.9 2.5 8.3 0 13.5-5.2 15.2-6.9l34.2-34.2c3.4-3.4 8.8-7.5 15.1-7.5 6.2 0 11.3 3.9 14.4 7.3l.2.2 55.1 55.1c10.3 10.2 10.3 20.7.1 31.3zm-154.2-286.1c26.2 4.4 50 16.8 69 35.8s31.3 42.8 35.8 69c1.1 6.6 6.8 11.2 13.3 11.2.8 0 1.5-.1 2.3-.2 7.4-1.2 12.3-8.2 11.1-15.6-5.4-31.7-20.4-60.6-43.3-83.5s-51.8-37.9-83.5-43.3c-7.4-1.2-14.3 3.7-15.6 11s3.5 14.4 10.9 15.6zm217.2 96.3c-8.9-52.2-33.5-99.7-71.3-137.5s-85.3-62.4-137.5-71.3c-7.3-1.3-14.2 3.7-15.5 11-1.2 7.4 3.7 14.3 11.1 15.6 46.6 7.9 89.1 30 122.9 63.7 33.8 33.8 55.8 76.3 63.7 122.9 1.1 6.6 6.8 11.2 13.3 11.2.8 0 1.5-.1 2.3-.2 7.3-1.1 12.3-8.1 11-15.4z"/></svg><svg viewBox="0 0 513.64 513.64" id="phone-call-2" xmlns="http://www.w3.org/2000/svg"><path d="M499.66 376.96l-71.68-71.68c-25.6-25.6-69.12-15.359-79.36 17.92-7.68 23.041-33.28 35.841-56.32 30.72-51.2-12.8-120.32-79.36-133.12-133.12-7.68-23.041 7.68-48.641 30.72-56.32 33.28-10.24 43.52-53.76 17.92-79.36l-71.68-71.68c-20.48-17.92-51.2-17.92-69.12 0L18.38 62.08c-48.64 51.2 5.12 186.88 125.44 307.2s256 176.641 307.2 125.44l48.64-48.64c17.921-20.48 17.921-51.2 0-69.12z"/></svg><svg viewBox="0 0 512 512" id="search" xmlns="http://www.w3.org/2000/svg"><path d="M508.875 493.792L353.089 338.005c32.358-35.927 52.245-83.296 52.245-135.339C405.333 90.917 314.417 0 202.667 0S0 90.917 0 202.667s90.917 202.667 202.667 202.667c52.043 0 99.411-19.887 135.339-52.245l155.786 155.786a10.634 10.634 0 007.542 3.125c2.729 0 5.458-1.042 7.542-3.125 4.166-4.167 4.166-10.917-.001-15.083zM202.667 384c-99.979 0-181.333-81.344-181.333-181.333S102.688 21.333 202.667 21.333 384 102.677 384 202.667 302.646 384 202.667 384z"/></svg><svg viewBox="0 0 64 64" id="sprite" xmlns="http://www.w3.org/2000/svg"><path d="M32 16a5 5 0 10-5-5 5.006 5.006 0 005 5zm0-8a3 3 0 11-3 3 3 3 0 013-3z"/><path d="M61.923 54.615L57 42.8V13a3 3 0 00-3-3h-6V4a2 2 0 00-2-2H18a2 2 0 00-2 2v6h-6a3 3 0 00-3 3v29.8L2.077 54.615A1 1 0 002 55v4a3 3 0 003 3h54a3 3 0 003-3v-4a1 1 0 00-.077-.385zM40.618 54L38.9 50.553A1 1 0 0038 50H26a1 1 0 00-.895.553L23.382 54H4.5l4.167-10h46.666L59.5 54zm-2.236 0H25.618l1-2h10.764zM22 24h-4v-1h4zm-4-8.874A4.007 4.007 0 0120.859 18H18zM22 21h-4v-1h4zm.877-4.121a2.946 2.946 0 00-.188.23A6.011 6.011 0 0018 13.09V8.91A6.008 6.008 0 0022.91 4h18.18A6.008 6.008 0 0046 8.91v4.18A6.008 6.008 0 0041.09 18H27.819a2.894 2.894 0 00-.7-1.111A2.973 2.973 0 0025 16a2.971 2.971 0 00-2.122.879zM28 21v-1h18v1zm-4-2a.991.991 0 01.293-.709.978.978 0 01.7-.293.9.9 0 01.722.306.988.988 0 01.3.7v4a1 1 0 001 1 4.88 4.88 0 012.326.584 4.4 4.4 0 01.43.253 5.051 5.051 0 011.873 2.258A4.862 4.862 0 0132 29l2 .013a6.838 6.838 0 00-.525-2.689c-.047-.112-.112-.213-.164-.322H40V36H26v-4a1 1 0 00-.105-.446L24 27.765zm7.872 5a6.973 6.973 0 00-1.015-.834c-.093-.061-.186-.109-.28-.166H46v1zm11.269-6A4 4 0 0146 15.142V18zM46 6.858A4 4 0 0143.142 4H46zM20.858 4A4 4 0 0118 6.858V4zM9 13a1 1 0 011-1h6v12a2 2 0 002 2h4v2a1 1 0 00.105.447L24 32.234V37a1 1 0 001 1h16a1 1 0 001-1V26h4a2 2 0 002-2V12h6a1 1 0 011 1v29H9zm50 47H5a1 1 0 01-1-1v-3h56v3a1 1 0 01-1 1z"/><path d="M10 50h2v2h-2zm4 0h2v2h-2zm34 0h2v2h-2zm4 0h2v2h-2zm-37-4h2v2h-2zm-4 0h2v2h-2zm8 0h2v2h-2zm4 0h2v2h-2zm4 0h2v2h-2zm4 0h2v2h-2zm4 0h2v2h-2zm4 0h2v2h-2zm4 0h2v2h-2zm4 0h2v2h-2zm4 0h2v2h-2zm-33 4h4v2h-4zm24 0h4v2h-4zM11 32h8v2h-8zm0 4h8v2h-8zm4-8h4v2h-4zm30 8h8v2h-8zm0-4h8v2h-8zm0-4h8v2h-8zm-34 0h2v2h-2z"/></svg><svg viewBox="0 0 24 24" id="star" xmlns="http://www.w3.org/2000/svg"><path d="M22 10.1c.1-.5-.3-1.1-.8-1.1l-5.7-.8L12.9 3c-.1-.2-.2-.3-.4-.4-.5-.3-1.1-.1-1.4.4L8.6 8.2 2.9 9c-.3 0-.5.1-.6.3-.4.4-.4 1 0 1.4l4.1 4-1 5.7c0 .2 0 .4.1.6.3.5.9.7 1.4.4l5.1-2.7 5.1 2.7c.1.1.3.1.5.1h.2c.5-.1.9-.6.8-1.2l-1-5.7 4.1-4c.2-.1.3-.3.3-.5z"/></svg><svg viewBox="-73 0 512 512.156" id="tap" xmlns="http://www.w3.org/2000/svg"><path d="M1.781 232.434a26.718 26.718 0 007.73 29.754c16.29 16.3 49.79 75.144 66.372 116.609 11.316 28.281 36.164 56.039 55.015 74.351a42.362 42.362 0 0112.645 30.286v3.12c0 14.141 11.46 25.602 25.602 25.602h136.53c14.141 0 25.602-11.46 25.602-25.601V460.34a7.827 7.827 0 012.278-5.809c31.496-28.8 31.855-76.879 31.855-78.91v-135.09c.317-18.273-13.46-33.722-31.648-35.488a34.116 34.116 0 00-19.551 4.648v-13.27a33.933 33.933 0 00-17.219-29.726 33.927 33.927 0 00-34.347.535 33.732 33.732 0 00-50.836-25.796V127.3a67.41 67.41 0 0034.136-58.88c0-37.702-30.566-68.265-68.27-68.265S109.41 30.72 109.41 68.422a67.415 67.415 0 0034.133 58.879v137.386a94.409 94.409 0 01-4.063 29.758 8.626 8.626 0 01-6.152 5.735 8.223 8.223 0 01-7.68-2.016 121.288 121.288 0 01-17.644-21.144c-14.809-22.153-52.07-63.532-75.395-63.532a33.427 33.427 0 00-30.828 18.946zM126.477 68.422c0-28.277 22.921-51.2 51.199-51.2 28.277 0 51.199 22.923 51.199 51.2a50.682 50.682 0 01-17.066 38.215V68.422c0-18.852-15.282-34.133-34.133-34.133-18.852 0-34.133 15.281-34.133 34.133v38.215a50.695 50.695 0 01-17.066-38.215zm-32.7 218.07a138.648 138.648 0 0020.164 24.106 25.249 25.249 0 0023.536 6.136 25.72 25.72 0 0018.175-16.828 111.14 111.14 0 004.957-35.219V68.423c0-9.426 7.641-17.067 17.067-17.067s17.066 7.641 17.066 17.067v179.2a8.534 8.534 0 1017.067 0v-76.798c0-9.426 7.644-17.066 17.066-17.066 9.426 0 17.07 7.64 17.07 17.066v76.797a8.533 8.533 0 1017.067 0v-51.2c0-9.425 7.64-17.066 17.066-17.066s17.067 7.641 17.067 17.067v59.734a8.533 8.533 0 0017.066 0V239.09a16.921 16.921 0 015.008-12.059 17.267 17.267 0 0113.312-4.965c9.219 1.204 16.04 9.172 15.813 18.465v135.09c0 .418-.434 42.668-26.317 66.324a24.902 24.902 0 00-7.816 18.395v26.215a8.534 8.534 0 01-8.535 8.535H169.145a8.534 8.534 0 01-8.536-8.535v-3.121a59.557 59.557 0 00-17.824-42.532c-14.457-14.035-40.312-41.609-51.047-68.453-17.562-43.879-52.308-104.476-70.16-122.328-4.062-4.059-5.422-7.816-4.039-11.16a16.827 16.827 0 0115.07-8.406c11.598 0 43.043 28.75 61.168 55.937zm0 0"/><path d="M322.742 367.09a8.534 8.534 0 008.535-8.535v-51.2c0-4.71-3.82-8.53-8.535-8.53a8.532 8.532 0 00-8.531 8.53v51.2a8.533 8.533 0 008.531 8.535zm-8.532 51.2a8.52 8.52 0 006.032-2.5 34.644 34.644 0 0011.035-23.103 8.426 8.426 0 00-8.328-8.41 8.582 8.582 0 00-8.738 8.215 18.773 18.773 0 01-6.035 11.23 8.535 8.535 0 006.035 14.567zm-128 59.733h8.532a8.534 8.534 0 100-17.066h-8.531a8.533 8.533 0 100 17.066zm42.665 0h59.734a8.534 8.534 0 100-17.066h-59.734a8.532 8.532 0 00-8.531 8.531 8.533 8.533 0 008.531 8.535zM109.41 141.29a8.533 8.533 0 006.223-14.38C86.066 95.66 84.46 47.266 111.895 14.125a8.542 8.542 0 001.574-8.504A8.539 8.539 0 00106.8.11a8.532 8.532 0 00-8.059 3.145c-32.906 39.766-31 97.828 4.45 135.348a8.538 8.538 0 006.218 2.687zm147.91-22.606a8.528 8.528 0 006.508.527 8.524 8.524 0 004.977-4.23c18.656-36.329 13.86-80.282-12.196-111.727a8.528 8.528 0 00-8.058-3.145 8.539 8.539 0 00-6.664 5.512 8.524 8.524 0 001.574 8.504c21.71 26.195 25.707 62.813 10.164 93.074-2.152 4.192-.496 9.332 3.695 11.485zm0 0"/></svg><svg viewBox="0 0 24 24" id="telegram" xmlns="http://www.w3.org/2000/svg"><path d="M9.417 15.181l-.397 5.584c.568 0 .814-.244 1.109-.537l2.663-2.545 5.518 4.041c1.012.564 1.725.267 1.998-.931L23.93 3.821l.001-.001c.321-1.496-.541-2.081-1.527-1.714l-21.29 8.151c-1.453.564-1.431 1.374-.247 1.741l5.443 1.693L18.953 5.78c.595-.394 1.136-.176.691.218z"/></svg><svg viewBox="0 0 512.001 512.001" id="telephone" xmlns="http://www.w3.org/2000/svg"><path d="M324.259 0c-4.71 0-8.533 3.823-8.533 8.533s3.823 8.533 8.533 8.533c94.106 0 170.667 76.561 170.667 170.667a8.536 8.536 0 008.533 8.533 8.53 8.53 0 008.533-8.533C511.992 84.216 427.777 0 324.259 0z"/><path d="M324.259 51.2c-4.71 0-8.533 3.823-8.533 8.533s3.823 8.533 8.533 8.533c65.877 0 119.467 53.589 119.467 119.467a8.536 8.536 0 008.533 8.533 8.53 8.53 0 008.533-8.533c0-75.28-61.244-136.533-136.533-136.533z"/><path d="M324.259 102.4c-4.71 0-8.533 3.823-8.533 8.533s3.823 8.533 8.533 8.533c37.641 0 68.267 30.626 68.267 68.267a8.536 8.536 0 008.533 8.533 8.53 8.53 0 008.533-8.533c0-47.052-38.281-85.333-85.333-85.333zm137.506 217.814a311.858 311.858 0 01-68.045-16.922c-21.239-7.962-45.372-2.825-61.534 13.124l-26.974 26.914c-56.559-33.348-103.808-80.503-137.233-136.951l26.991-26.931c15.957-16.102 21.111-40.209 13.133-61.397a310.574 310.574 0 01-16.964-67.994C187.051 21.231 162.091-.111 132.916 0H58.258c-1.741 0-3.482.085-5.205.239-15.506 1.4-29.543 8.747-39.519 20.677C3.559 32.854-1.169 47.958.248 63.582c8.269 77.722 35.149 153.472 77.688 219.008 38.622 60.655 91.162 113.092 151.876 151.595 65.417 42.342 140.962 69.163 218.641 77.585 1.758.154 3.524.23 5.299.23h.162c32.154-.137 58.197-26.351 58.069-58.411v-74.402c.675-29.499-20.864-54.843-50.218-58.973zm33.152 58.666v74.752c.085 22.682-18.338 41.216-41.062 41.31-1.331-.051-2.611-.051-3.738-.154-74.871-8.124-147.849-34.031-211.106-74.974C180.336 382.6 129.614 331.98 92.289 273.356c-41.123-63.35-67.081-136.515-75.06-211.446-.99-10.94 2.347-21.606 9.404-30.046s16.981-13.636 27.955-14.626a40.442 40.442 0 013.669-.171h75.145c20.446 0 37.965 15.147 40.823 35.302a327.613 327.613 0 0017.894 71.68c5.641 14.984 1.997 32.017-9.242 43.358l-31.607 31.539a8.528 8.528 0 00-1.391 10.266c36.164 63.488 88.909 116.122 152.508 152.209a8.524 8.524 0 0010.24-1.382l31.573-31.505c11.409-11.255 28.501-14.882 43.537-9.25 23.142 8.619 47.3 14.635 71.714 17.843 20.737 2.918 35.986 20.864 35.466 41.753z"/><path d="M128.001 34.134H58.258c-.717 0-1.425.034-2.133.102-8.695.785-14.012 5.717-16.401 8.576-1.92 2.295-6.306 8.559-5.538 17.161 3.226 30.268 9.062 59.716 17.365 87.535a8.547 8.547 0 008.175 6.093c.811 0 1.63-.111 2.449-.358 4.514-1.348 7.083-6.101 5.734-10.615C59.905 115.816 54.273 87.4 51.175 58.31c-.196-2.167 1.212-4.036 1.647-4.565.7-.836 2.261-2.278 5.436-2.543h69.735c4.71 0 8.533-3.814 8.533-8.525.008-4.712-3.815-8.543-8.525-8.543zm341.324 341.333a8.536 8.536 0 00-8.533 8.533l-.009 69.623a7.11 7.11 0 01-2.065 5.077c-1.34 1.348-3.115 2.091-4.804 2.099l-.785-.017c-29.158-3.166-57.335-8.781-83.746-16.691-4.497-1.357-9.267 1.212-10.624 5.726-1.357 4.514 1.212 9.267 5.726 10.624 27.401 8.209 56.61 14.029 86.955 17.323.7.068 2.125.102 2.33.102 6.46-.026 12.518-2.56 17.067-7.142 4.548-4.591 7.04-10.684 7.014-17.135l.008-69.589c0-4.71-3.823-8.533-8.534-8.533z"/></svg><svg viewBox="0 0 480 480" id="terminal" xmlns="http://www.w3.org/2000/svg"><path d="M456 128H264V32c0-17.673-14.327-32-32-32H32C14.327 0 0 14.327 0 32v416c0 17.673 14.327 32 32 32h200c17.673 0 32-14.327 32-32v-96h192c13.255 0 24-10.745 24-24V152c0-13.255-10.745-24-24-24zM16 32c0-8.837 7.163-16 16-16h200c8.837 0 16 7.163 16 16v96h-16V72a8 8 0 00-8-8H40a8 8 0 00-8 8v120a8 8 0 008 8h96v16H16V32zm122.176 305.864A24.151 24.151 0 00146.784 348H144c0 6.627-5.373 12-12 12s-12-5.373-12-12 5.373-12 12-12c2.192.035 4.331.681 6.176 1.864zM136 287.288c-6.234 2.249-13.111-.982-15.36-7.217s.982-13.111 7.217-15.36a12.012 12.012 0 014.143-.712c1.365.008 2.718.251 4 .72v22.569zM136 152v32H48V80h168v48h-56c-13.255 0-24 10.745-24 24zm112 296c0 8.837-7.163 16-16 16H32c-8.837 0-16-7.163-16-16V232h120v16.32a27.763 27.763 0 00-4-.32c-15.464 0-28 12.536-28 28s12.536 28 28 28a27.763 27.763 0 004-.32v16.64a27.763 27.763 0 00-4-.32c-15.464-.062-28.05 12.423-28.113 27.887-.062 15.464 12.423 28.05 27.887 28.113 13.961.056 25.831-10.181 27.826-24 .136 0 .264.04.4.04h16.408c2.113 15.243 16.183 25.887 31.427 23.773a27.863 27.863 0 0023.773-23.773H248V448zm-55.264-96h22.528c-2.167 6.221-8.967 9.507-15.188 7.34a11.927 11.927 0 01-7.34-7.34zM464 328a8 8 0 01-8 8H160a8 8 0 01-8-8V152a8 8 0 018-8h296a8 8 0 018 8v176z"/><path d="M60 248c-15.464 0-28 12.536-28 28s12.536 28 28 28 28-12.536 28-28-12.536-28-28-28zm0 40c-6.627 0-12-5.373-12-12s5.373-12 12-12 12 5.373 12 12-5.373 12-12 12zm0 32c-15.464 0-28 12.536-28 28s12.536 28 28 28 28-12.536 28-28-12.536-28-28-28zm0 40c-6.627 0-12-5.373-12-12s5.373-12 12-12 12 5.373 12 12-5.373 12-12 12zm0 32c-15.464 0-28 12.536-28 28s12.536 28 28 28 28-12.536 28-28-12.536-28-28-28zm0 40c-6.627 0-12-5.373-12-12s5.373-12 12-12 12 5.373 12 12-5.373 12-12 12zm72-40c-15.464 0-28 12.536-28 28s12.536 28 28 28 28-12.536 28-28-12.536-28-28-28zm0 40c-6.627 0-12-5.373-12-12s5.373-12 12-12 12 5.373 12 12-5.373 12-12 12zm72-40c-15.464 0-28 12.536-28 28s12.536 28 28 28 28-12.536 28-28-12.536-28-28-28zm0 40c-6.627 0-12-5.373-12-12s5.373-12 12-12 12 5.373 12 12-5.373 12-12 12zM32 32h200v16H32zm388.3 139.856A36.003 36.003 0 00404 168a35.852 35.852 0 00-16.144 3.84A35.612 35.612 0 00372 168c-19.882 0-36 16.118-36 36s16.118 36 36 36a35.526 35.526 0 0015.88-3.856c17.753 8.952 39.401 1.818 48.354-15.934 8.952-17.753 1.818-39.402-15.934-48.354zM372 224c-11.046 0-20-8.954-20-20s8.954-20 20-20 20 8.954 20 20-8.954 20-20 20zm32 0a19.43 19.43 0 01-1.936-.288 35.744 35.744 0 00-.072-39.56c.664-.064 1.328-.152 2.008-.152 11.046 0 20 8.954 20 20s-8.954 20-20 20zm-228-56h24v16h-24zm40 0h16v24h-16zm-40 32h24v16h-24zm40 0h16v16h-16zm-40 96h80v16h-80zm96 0h80v16h-80zm-96-40h48v16h-48zm64 0h48v16h-48zm64 0h48v16h-48zm64 0h48v16h-48z"/></svg><svg viewBox="0 0 512 512" id="user" xmlns="http://www.w3.org/2000/svg"><path d="M68.169 447.023C71.835 449.023 159.075 496 256 496c105.008 0 184.772-47.134 188.116-49.14A8 8 0 00448 440c0-64.593-19.807-123.7-55.771-166.442-25.158-29.9-56.724-50.28-91.539-59.662a104 104 0 10-89.38 0c-34.815 9.382-66.381 29.765-91.539 59.662C83.807 316.3 64 375.407 64 440a8 8 0 004.169 7.023zM168 120a88 88 0 1188 88 88.1 88.1 0 01-88-88zm-35.987 163.859C164.5 245.258 208.528 224 256 224s91.5 21.258 123.987 59.859c32.681 38.838 51.056 92.48 51.977 151.474C414.845 444.6 343.708 480 256 480c-81.11 0-157.5-35.609-175.96-44.856.96-58.921 19.327-112.488 51.973-151.285z"/></svg><svg version="1.0" viewBox="0 0 100 100" id="vk" xmlns="http://www.w3.org/2000/svg"><path d="M74.219 27.155l-1.042 2.227S68.236 39.876 62.22 46.487c-1.934 2.139-2.916 2.783-3.984 2.783-.859 0-1.256-.716-1.256-2.643v-19.96H38.274v1.529c0 2.227 3.418 2.731 3.418 8.764v12.447c0 2.507-.137 3.477-1.321 3.477-3.145 0-10.612-10.777-14.805-23.014l-1.042-3.203h-12.22c-1.328 0-2.305.904-2.305 2.227 0 2.435 2.864 13.697 14.102 28.792 7.539 10.153 17.454 15.647 26.387 15.647 5.449 0 6.771-.904 6.771-3.196v-7.79c0-1.949.769-2.783 1.889-2.783 1.256 0 3.47.4 8.652 5.495.006 0 8.307 8.274 8.307 8.274h11.869c1.048 0 2.024-.484 2.024-2.223 0-2.299-3.001-6.4-7.61-11.267-1.882-2.503-4.955-5.218-5.932-6.472-1.393-1.458-.977-2.291 0-3.821 0 0 10.541-14.817 11.589-19.681.352-1.738-.417-2.715-2.233-2.715l-11.595.001z"/></svg><svg viewBox="0 0 52 52" id="whatsapp" xmlns="http://www.w3.org/2000/svg"><path d="M26 0C11.663 0 0 11.663 0 26c0 4.891 1.359 9.639 3.937 13.762C2.91 43.36 1.055 50.166 1.035 50.237a.996.996 0 00.27.981c.263.253.643.343.989.237l10.306-3.17A25.936 25.936 0 0026 52c14.337 0 26-11.663 26-26S40.337 0 26 0zm0 50a23.94 23.94 0 01-12.731-3.651 1 1 0 00-.825-.108l-8.999 2.77a991.452 991.452 0 012.538-9.13c.08-.278.035-.578-.122-.821A23.907 23.907 0 012 26C2 12.767 12.767 2 26 2s24 10.767 24 24-10.767 24-24 24z"/><path d="M42.985 32.126c-1.846-1.025-3.418-2.053-4.565-2.803-.876-.572-1.509-.985-1.973-1.218-1.297-.647-2.28-.19-2.654.188a1 1 0 00-.125.152c-1.347 2.021-3.106 3.954-3.621 4.058-.595-.093-3.38-1.676-6.148-3.981-2.826-2.355-4.604-4.61-4.865-6.146C20.847 20.51 21.5 19.336 21.5 18c0-1.377-3.212-7.126-3.793-7.707-.583-.582-1.896-.673-3.903-.273a1.01 1.01 0 00-.511.273c-.243.243-5.929 6.04-3.227 13.066 2.966 7.711 10.579 16.674 20.285 18.13 1.103.165 2.137.247 3.105.247 5.71 0 9.08-2.873 10.029-8.572a.996.996 0 00-.5-1.038zm-12.337 7.385c-10.264-1.539-16.729-11.708-18.715-16.87-1.97-5.12 1.663-9.685 2.575-10.717.742-.126 1.523-.179 1.849-.128.681.947 3.039 5.402 3.143 6.204 0 .525-.171 1.256-2.207 3.293A.996.996 0 0017 22c0 5.236 11.044 12.5 13 12.5 1.701 0 3.919-2.859 5.182-4.722a.949.949 0 01.371.116c.36.181.984.588 1.773 1.104 1.042.681 2.426 1.585 4.06 2.522-.742 3.57-2.816 7.181-10.738 5.991z"/></svg><svg viewBox="0 0 24 24" id="whatsapp-icon" xmlns="http://www.w3.org/2000/svg"><path d="M16.6 14c-.2-.1-1.5-.7-1.7-.8-.2-.1-.4-.1-.6.1-.2.2-.6.8-.8 1-.1.2-.3.2-.5.1-.7-.3-1.4-.7-2-1.2-.5-.5-1-1.1-1.4-1.7-.1-.2 0-.4.1-.5.1-.1.2-.3.4-.4.1-.1.2-.3.2-.4.1-.1.1-.3 0-.4-.1-.1-.6-1.3-.8-1.8-.1-.7-.3-.7-.5-.7h-.5c-.2 0-.5.2-.6.3-.6.6-.9 1.3-.9 2.1.1.9.4 1.8 1 2.6 1.1 1.6 2.5 2.9 4.2 3.7.5.2.9.4 1.4.5.5.2 1 .2 1.6.1.7-.1 1.3-.6 1.7-1.2.2-.4.2-.8.1-1.2l-.4-.2m2.5-9.1C15.2 1 8.9 1 5 4.9c-3.2 3.2-3.8 8.1-1.6 12L2 22l5.3-1.4c1.5.8 3.1 1.2 4.7 1.2 5.5 0 9.9-4.4 9.9-9.9.1-2.6-1-5.1-2.8-7m-2.7 14c-1.3.8-2.8 1.3-4.4 1.3-1.5 0-2.9-.4-4.2-1.1l-.3-.2-3.1.8.8-3-.2-.3c-2.4-4-1.2-9 2.7-11.5S16.6 3.7 19 7.5c2.4 3.9 1.3 9-2.6 11.4"/></svg></svg>