<svg version="1.1" id="Layer_1" xmlns="http://www.w3.org/2000/svg" x="0" y="0" viewBox="0 0 469.333 469.333" xml:space="preserve"><path d="M434.979 42.667H85.333v3.061l-4.375-14.999C75.687 12.635 58.844 0 40 0H10.667C4.771 0 0 4.771 0 10.667s4.771 10.667 10.667 10.667H40c9.427 0 17.844 6.313 20.479 15.365l66.396 227.635-34.021 42.521a34.48 34.48 0 00-7.521 21.458c0 18.948 15.406 34.354 34.354 34.354H416A10.66 10.66 0 00426.667 352 10.66 10.66 0 00416 341.333H119.687c-7.177 0-13.021-5.844-13.021-13.021 0-2.948 1.01-5.844 2.854-8.135l34.279-42.844H353.02c16.448 0 31.604-9.615 38.615-24.5l74.438-158.177a34.636 34.636 0 003.26-14.615V77.02c0-18.947-15.406-34.353-34.354-34.353zM448 80.042c0 1.906-.427 3.823-1.24 5.542L372.333 243.75c-3.51 7.438-11.083 12.25-19.313 12.25H146.667L90.663 64h344.316C442.156 64 448 69.844 448 77.021v3.021zM128 384c-23.531 0-42.667 19.135-42.667 42.667s19.135 42.667 42.667 42.667 42.667-19.135 42.667-42.667S151.531 384 128 384zm0 64c-11.76 0-21.333-9.573-21.333-21.333 0-11.76 9.573-21.333 21.333-21.333 11.76 0 21.333 9.573 21.333 21.333 0 11.76-9.573 21.333-21.333 21.333zm256-64c-23.531 0-42.667 19.135-42.667 42.667s19.135 42.667 42.667 42.667 42.667-19.135 42.667-42.667S407.531 384 384 384zm0 64c-11.76 0-21.333-9.573-21.333-21.333 0-11.76 9.573-21.333 21.333-21.333 11.76 0 21.333 9.573 21.333 21.333 0 11.76-9.573 21.333-21.333 21.333z"/></svg>