<svg height="512" viewBox="0 0 64 64" width="512" xmlns="http://www.w3.org/2000/svg"><g id="outline"><path d="M50 2H18a5.006 5.006 0 00-5 5v45H9v5a5.006 5.006 0 005 5h28a5.006 5.006 0 005-5V22h7a1 1 0 001-1V7a5.006 5.006 0 00-5-5zM14 60a3 3 0 01-3-3v-3h26v3a4.98 4.98 0 001 3zM45 7v50a3 3 0 01-6 0v-5H15V7a3 3 0 013-3h28a4.98 4.98 0 00-1 3zm8 13h-6V7a3 3 0 016 0z"/><path d="M36 36h-2v2h-3v6h6v2h-6v2h3v2h2v-2h3v-6h-6v-2h6v-2h-3zm-10 0h-2v2h-3v6h6v2h-6v2h3v2h2v-2h3v-6h-6v-2h6v-2h-3zM21 6h11v2H21zm13 0h6v2h-6zm-15 4h23v2H19zm-2 5h14v2H17zm0 4h17v2H17zm0 4h10v2H17zm0 4h12v2H17zm0 4h12v2H17zm22-16h4v2h-4zm0 4h4v2h-4zm0 4h4v2h-4zm0 4h4v2h-4zm0 4h4v2h-4z"/></g></svg>