<svg height="640" viewBox="0 0 480 480" width="640" xmlns="http://www.w3.org/2000/svg"><path d="M240 288c53.02 0 96-42.98 96-96s-42.98-96-96-96-96 42.98-96 96c.059 52.996 43.004 95.941 96 96zm0-176c44.184 0 80 35.816 80 80s-35.816 80-80 80-80-35.816-80-80c.047-44.164 35.836-79.953 80-80zm0 0"/><path d="M248 216h-16a8 8 0 01-8-8h-16c0 13.254 10.746 24 24 24v16h16v-16c13.254 0 24-10.746 24-24s-10.746-24-24-24h-16a8 8 0 010-16h16a8 8 0 018 8h16c0-13.254-10.746-24-24-24v-16h-16v16c-13.254 0-24 10.746-24 24s10.746 24 24 24h16a8 8 0 010 16zm176-72c13.254 0 24-10.746 24-24s-10.746-24-24-24-24 10.746-24 24 10.746 24 24 24zm0-32a8 8 0 110 16 8 8 0 010-16zm-60.687 16H384v-16h-24a8.001 8.001 0 00-5.656 2.344l-16 16 11.312 11.312zM424 272c13.254 0 24-10.746 24-24s-10.746-24-24-24-24 10.746-24 24 10.746 24 24 24zm0-32a8 8 0 110 16 8 8 0 010-16zm-72 0h32v16h-32zM56 144c13.254 0 24-10.746 24-24S69.254 96 56 96s-24 10.746-24 24 10.746 24 24 24zm0-32a8 8 0 110 16 8 8 0 010-16zm74.344 29.656l11.312-11.312-16-16A8.001 8.001 0 00120 112H96v16h20.688zM56 224c-13.254 0-24 10.746-24 24s10.746 24 24 24 24-10.746 24-24-10.746-24-24-24zm0 32a8 8 0 110-16 8 8 0 010 16zm40-16h32v16H96zm0 0"/><path d="M440 0H40C17.918.027.027 17.918 0 40v304c.027 22.082 17.918 39.973 40 40h134.938l-6 48H152c-13.254 0-24 10.746-24 24s10.746 24 24 24h176c13.254 0 24-10.746 24-24s-10.746-24-24-24h-16.938l-6-48H440c22.082-.027 39.973-17.918 40-40V40c-.027-22.082-17.918-39.973-40-40zM40 16h400c13.254 0 24 10.746 24 24v24H16V40c0-13.254 10.746-24 24-24zm424 64v224H16V80zM336 456a8 8 0 01-8 8H152a8 8 0 010-16h176a8 8 0 018 8zm-41.063-24H185.063l6-48h97.875zM440 368H40c-13.254 0-24-10.746-24-24v-24h448v24c0 13.254-10.746 24-24 24zm0 0"/><path d="M416 336h16v16h-16zM48 32h16v16H48zm32 0h16v16H80zm32 0h16v16h-16zm0 0"/></svg>