<svg height="512" viewBox="0 0 64 64" width="512" xmlns="http://www.w3.org/2000/svg"><g id="Payment-Online-Cash-Financial-Laptop"><path d="M32 16a5 5 0 10-5-5 5.006 5.006 0 005 5zm0-8a3 3 0 11-3 3 3 3 0 013-3z"/><path d="M61.923 54.615L57 42.8V13a3 3 0 00-3-3h-6V4a2 2 0 00-2-2H18a2 2 0 00-2 2v6h-6a3 3 0 00-3 3v29.8L2.077 54.615A1 1 0 002 55v4a3 3 0 003 3h54a3 3 0 003-3v-4a1 1 0 00-.077-.385zM40.618 54L38.9 50.553A1 1 0 0038 50H26a1 1 0 00-.895.553L23.382 54H4.5l4.167-10h46.666L59.5 54zm-2.236 0H25.618l1-2h10.764zM22 24h-4v-1h4zm-4-8.874A4.007 4.007 0 0120.859 18H18zM22 21h-4v-1h4zm.877-4.121a2.946 2.946 0 00-.188.23A6.011 6.011 0 0018 13.09V8.91A6.008 6.008 0 0022.91 4h18.18A6.008 6.008 0 0046 8.91v4.18A6.008 6.008 0 0041.09 18H27.819a2.894 2.894 0 00-.7-1.111A2.973 2.973 0 0025 16a2.971 2.971 0 00-2.122.879zM28 21v-1h18v1zm-4-2a.991.991 0 01.293-.709.978.978 0 01.7-.293.9.9 0 01.722.306.988.988 0 01.3.7v4a1 1 0 001 1 4.88 4.88 0 012.326.584 4.4 4.4 0 01.43.253 5.051 5.051 0 011.873 2.258A4.862 4.862 0 0132 29l2 .013a6.838 6.838 0 00-.525-2.689c-.047-.112-.112-.213-.164-.322H40V36H26v-4a1 1 0 00-.105-.446L24 27.765zm7.872 5a6.973 6.973 0 00-1.015-.834c-.093-.061-.186-.109-.28-.166H46v1zm11.269-6A4 4 0 0146 15.142V18zM46 6.858A4 4 0 0143.142 4H46zM20.858 4A4 4 0 0118 6.858V4zM9 13a1 1 0 011-1h6v12a2 2 0 002 2h4v2a1 1 0 00.105.447L24 32.234V37a1 1 0 001 1h16a1 1 0 001-1V26h4a2 2 0 002-2V12h6a1 1 0 011 1v29H9zm50 47H5a1 1 0 01-1-1v-3h56v3a1 1 0 01-1 1z"/><path d="M10 50h2v2h-2zm4 0h2v2h-2zm34 0h2v2h-2zm4 0h2v2h-2zm-37-4h2v2h-2zm-4 0h2v2h-2zm8 0h2v2h-2zm4 0h2v2h-2zm4 0h2v2h-2zm4 0h2v2h-2zm4 0h2v2h-2zm4 0h2v2h-2zm4 0h2v2h-2zm4 0h2v2h-2zm4 0h2v2h-2zm-33 4h4v2h-4zm24 0h4v2h-4zM11 32h8v2h-8zm0 4h8v2h-8zm4-8h4v2h-4zm30 8h8v2h-8zm0-4h8v2h-8zm0-4h8v2h-8zm-34 0h2v2h-2z"/></g></svg>