<svg height="512pt" viewBox="-73 0 512 512.156" width="512pt" xmlns="http://www.w3.org/2000/svg"><path d="M1.781 232.434a26.718 26.718 0 007.73 29.754c16.29 16.3 49.79 75.144 66.372 116.609 11.316 28.281 36.164 56.039 55.015 74.351a42.362 42.362 0 0112.645 30.286v3.12c0 14.141 11.46 25.602 25.602 25.602h136.53c14.141 0 25.602-11.46 25.602-25.601V460.34a7.827 7.827 0 012.278-5.809c31.496-28.8 31.855-76.879 31.855-78.91v-135.09c.317-18.273-13.46-33.722-31.648-35.488a34.116 34.116 0 00-19.551 4.648v-13.27a33.933 33.933 0 00-17.219-29.726 33.927 33.927 0 00-34.347.535 33.732 33.732 0 00-50.836-25.796V127.3a67.41 67.41 0 0034.136-58.88c0-37.702-30.566-68.265-68.27-68.265S109.41 30.72 109.41 68.422a67.415 67.415 0 0034.133 58.879v137.386a94.409 94.409 0 01-4.063 29.758 8.626 8.626 0 01-6.152 5.735 8.223 8.223 0 01-7.68-2.016 121.288 121.288 0 01-17.644-21.144c-14.809-22.153-52.07-63.532-75.395-63.532a33.427 33.427 0 00-30.828 18.946zM126.477 68.422c0-28.277 22.921-51.2 51.199-51.2 28.277 0 51.199 22.923 51.199 51.2a50.682 50.682 0 01-17.066 38.215V68.422c0-18.852-15.282-34.133-34.133-34.133-18.852 0-34.133 15.281-34.133 34.133v38.215a50.695 50.695 0 01-17.066-38.215zm-32.7 218.07a138.648 138.648 0 0020.164 24.106 25.249 25.249 0 0023.536 6.136 25.72 25.72 0 0018.175-16.828 111.14 111.14 0 004.957-35.219V68.423c0-9.426 7.641-17.067 17.067-17.067s17.066 7.641 17.066 17.067v179.2a8.534 8.534 0 1017.067 0v-76.798c0-9.426 7.644-17.066 17.066-17.066 9.426 0 17.07 7.64 17.07 17.066v76.797a8.533 8.533 0 1017.067 0v-51.2c0-9.425 7.64-17.066 17.066-17.066s17.067 7.641 17.067 17.067v59.734a8.533 8.533 0 0017.066 0V239.09a16.921 16.921 0 015.008-12.059 17.267 17.267 0 0113.312-4.965c9.219 1.204 16.04 9.172 15.813 18.465v135.09c0 .418-.434 42.668-26.317 66.324a24.902 24.902 0 00-7.816 18.395v26.215a8.534 8.534 0 01-8.535 8.535H169.145a8.534 8.534 0 01-8.536-8.535v-3.121a59.557 59.557 0 00-17.824-42.532c-14.457-14.035-40.312-41.609-51.047-68.453-17.562-43.879-52.308-104.476-70.16-122.328-4.062-4.059-5.422-7.816-4.039-11.16a16.827 16.827 0 0115.07-8.406c11.598 0 43.043 28.75 61.168 55.937zm0 0"/><path d="M322.742 367.09a8.534 8.534 0 008.535-8.535v-51.2c0-4.71-3.82-8.53-8.535-8.53a8.532 8.532 0 00-8.531 8.53v51.2a8.533 8.533 0 008.531 8.535zm-8.532 51.2a8.52 8.52 0 006.032-2.5 34.644 34.644 0 0011.035-23.103 8.426 8.426 0 00-8.328-8.41 8.582 8.582 0 00-8.738 8.215 18.773 18.773 0 01-6.035 11.23 8.535 8.535 0 006.035 14.567zm-128 59.733h8.532a8.534 8.534 0 100-17.066h-8.531a8.533 8.533 0 100 17.066zm42.665 0h59.734a8.534 8.534 0 100-17.066h-59.734a8.532 8.532 0 00-8.531 8.531 8.533 8.533 0 008.531 8.535zM109.41 141.29a8.533 8.533 0 006.223-14.38C86.066 95.66 84.46 47.266 111.895 14.125a8.542 8.542 0 001.574-8.504A8.539 8.539 0 00106.8.11a8.532 8.532 0 00-8.059 3.145c-32.906 39.766-31 97.828 4.45 135.348a8.538 8.538 0 006.218 2.687zm147.91-22.606a8.528 8.528 0 006.508.527 8.524 8.524 0 004.977-4.23c18.656-36.329 13.86-80.282-12.196-111.727a8.528 8.528 0 00-8.058-3.145 8.539 8.539 0 00-6.664 5.512 8.524 8.524 0 001.574 8.504c21.71 26.195 25.707 62.813 10.164 93.074-2.152 4.192-.496 9.332 3.695 11.485zm0 0"/></svg>