<svg version="1.1" id="Capa_1" xmlns="http://www.w3.org/2000/svg" x="0" y="0" viewBox="0 0 480 480" xml:space="preserve"><path d="M456 128H264V32c0-17.673-14.327-32-32-32H32C14.327 0 0 14.327 0 32v416c0 17.673 14.327 32 32 32h200c17.673 0 32-14.327 32-32v-96h192c13.255 0 24-10.745 24-24V152c0-13.255-10.745-24-24-24zM16 32c0-8.837 7.163-16 16-16h200c8.837 0 16 7.163 16 16v96h-16V72a8 8 0 00-8-8H40a8 8 0 00-8 8v120a8 8 0 008 8h96v16H16V32zm122.176 305.864A24.151 24.151 0 00146.784 348H144c0 6.627-5.373 12-12 12s-12-5.373-12-12 5.373-12 12-12c2.192.035 4.331.681 6.176 1.864zM136 287.288c-6.234 2.249-13.111-.982-15.36-7.217s.982-13.111 7.217-15.36a12.012 12.012 0 014.143-.712c1.365.008 2.718.251 4 .72v22.569zM136 152v32H48V80h168v48h-56c-13.255 0-24 10.745-24 24zm112 296c0 8.837-7.163 16-16 16H32c-8.837 0-16-7.163-16-16V232h120v16.32a27.763 27.763 0 00-4-.32c-15.464 0-28 12.536-28 28s12.536 28 28 28a27.763 27.763 0 004-.32v16.64a27.763 27.763 0 00-4-.32c-15.464-.062-28.05 12.423-28.113 27.887-.062 15.464 12.423 28.05 27.887 28.113 13.961.056 25.831-10.181 27.826-24 .136 0 .264.04.4.04h16.408c2.113 15.243 16.183 25.887 31.427 23.773a27.863 27.863 0 0023.773-23.773H248V448zm-55.264-96h22.528c-2.167 6.221-8.967 9.507-15.188 7.34a11.927 11.927 0 01-7.34-7.34zM464 328a8 8 0 01-8 8H160a8 8 0 01-8-8V152a8 8 0 018-8h296a8 8 0 018 8v176z"/><path d="M60 248c-15.464 0-28 12.536-28 28s12.536 28 28 28 28-12.536 28-28-12.536-28-28-28zm0 40c-6.627 0-12-5.373-12-12s5.373-12 12-12 12 5.373 12 12-5.373 12-12 12zm0 32c-15.464 0-28 12.536-28 28s12.536 28 28 28 28-12.536 28-28-12.536-28-28-28zm0 40c-6.627 0-12-5.373-12-12s5.373-12 12-12 12 5.373 12 12-5.373 12-12 12zm0 32c-15.464 0-28 12.536-28 28s12.536 28 28 28 28-12.536 28-28-12.536-28-28-28zm0 40c-6.627 0-12-5.373-12-12s5.373-12 12-12 12 5.373 12 12-5.373 12-12 12zm72-40c-15.464 0-28 12.536-28 28s12.536 28 28 28 28-12.536 28-28-12.536-28-28-28zm0 40c-6.627 0-12-5.373-12-12s5.373-12 12-12 12 5.373 12 12-5.373 12-12 12zm72-40c-15.464 0-28 12.536-28 28s12.536 28 28 28 28-12.536 28-28-12.536-28-28-28zm0 40c-6.627 0-12-5.373-12-12s5.373-12 12-12 12 5.373 12 12-5.373 12-12 12zM32 32h200v16H32zm388.3 139.856A36.003 36.003 0 00404 168a35.852 35.852 0 00-16.144 3.84A35.612 35.612 0 00372 168c-19.882 0-36 16.118-36 36s16.118 36 36 36a35.526 35.526 0 0015.88-3.856c17.753 8.952 39.401 1.818 48.354-15.934 8.952-17.753 1.818-39.402-15.934-48.354zM372 224c-11.046 0-20-8.954-20-20s8.954-20 20-20 20 8.954 20 20-8.954 20-20 20zm32 0a19.43 19.43 0 01-1.936-.288 35.744 35.744 0 00-.072-39.56c.664-.064 1.328-.152 2.008-.152 11.046 0 20 8.954 20 20s-8.954 20-20 20zm-228-56h24v16h-24zm40 0h16v24h-16zm-40 32h24v16h-24zm40 0h16v16h-16zm-40 96h80v16h-80zm96 0h80v16h-80zm-96-40h48v16h-48zm64 0h48v16h-48zm64 0h48v16h-48zm64 0h48v16h-48z"/></svg>