<svg height="512" viewBox="0 0 64 64" width="512" xmlns="http://www.w3.org/2000/svg"><g id="outline"><path d="m50 2h-32a5.006 5.006 0 0 0 -5 5v45h-4v5a5.006 5.006 0 0 0 5 5h28a5.006 5.006 0 0 0 5-5v-35h7a1 1 0 0 0 1-1v-14a5.006 5.006 0 0 0 -5-5zm-36 58a3 3 0 0 1 -3-3v-3h26v3a4.98 4.98 0 0 0 1 3zm31-53v50a3 3 0 0 1 -6 0v-5h-24v-45a3 3 0 0 1 3-3h28a4.98 4.98 0 0 0 -1 3zm8 13h-6v-13a3 3 0 0 1 6 0z"/><path d="m36 36h-2v2h-3v6h6v2h-6v2h3v2h2v-2h3v-6h-6v-2h6v-2h-3z"/><path d="m26 36h-2v2h-3v6h6v2h-6v2h3v2h2v-2h3v-6h-6v-2h6v-2h-3z"/><path d="m21 6h11v2h-11z"/><path d="m34 6h6v2h-6z"/><path d="m19 10h23v2h-23z"/><path d="m17 15h14v2h-14z"/><path d="m17 19h17v2h-17z"/><path d="m17 23h10v2h-10z"/><path d="m17 27h12v2h-12z"/><path d="m17 31h12v2h-12z"/><path d="m39 15h4v2h-4z"/><path d="m39 19h4v2h-4z"/><path d="m39 23h4v2h-4z"/><path d="m39 27h4v2h-4z"/><path d="m39 31h4v2h-4z"/></g></svg>