<svg height="480pt" viewBox="0 0 480 480" width="480pt" xmlns="http://www.w3.org/2000/svg"><path d="m240 288c53.019531 0 96-42.980469 96-96s-42.980469-96-96-96-96 42.980469-96 96c.058594 52.996094 43.003906 95.941406 96 96zm0-176c44.183594 0 80 35.816406 80 80s-35.816406 80-80 80-80-35.816406-80-80c.046875-44.164062 35.835938-79.953125 80-80zm0 0"/><path d="m248 216h-16c-4.417969 0-8-3.582031-8-8h-16c0 13.253906 10.746094 24 24 24v16h16v-16c13.253906 0 24-10.746094 24-24s-10.746094-24-24-24h-16c-4.417969 0-8-3.582031-8-8s3.582031-8 8-8h16c4.417969 0 8 3.582031 8 8h16c0-13.253906-10.746094-24-24-24v-16h-16v16c-13.253906 0-24 10.746094-24 24s10.746094 24 24 24h16c4.417969 0 8 3.582031 8 8s-3.582031 8-8 8zm0 0"/><path d="m424 144c13.253906 0 24-10.746094 24-24s-10.746094-24-24-24-24 10.746094-24 24 10.746094 24 24 24zm0-32c4.417969 0 8 3.582031 8 8s-3.582031 8-8 8-8-3.582031-8-8 3.582031-8 8-8zm0 0"/><path d="m363.3125 128h20.6875v-16h-24c-2.121094 0-4.15625.84375-5.65625 2.34375l-16 16 11.3125 11.3125zm0 0"/><path d="m424 272c13.253906 0 24-10.746094 24-24s-10.746094-24-24-24-24 10.746094-24 24 10.746094 24 24 24zm0-32c4.417969 0 8 3.582031 8 8s-3.582031 8-8 8-8-3.582031-8-8 3.582031-8 8-8zm0 0"/><path d="m352 240h32v16h-32zm0 0"/><path d="m56 144c13.253906 0 24-10.746094 24-24s-10.746094-24-24-24-24 10.746094-24 24 10.746094 24 24 24zm0-32c4.417969 0 8 3.582031 8 8s-3.582031 8-8 8-8-3.582031-8-8 3.582031-8 8-8zm0 0"/><path d="m130.34375 141.65625 11.3125-11.3125-16-16c-1.5-1.5-3.535156-2.34375-5.65625-2.34375h-24v16h20.6875zm0 0"/><path d="m56 224c-13.253906 0-24 10.746094-24 24s10.746094 24 24 24 24-10.746094 24-24-10.746094-24-24-24zm0 32c-4.417969 0-8-3.582031-8-8s3.582031-8 8-8 8 3.582031 8 8-3.582031 8-8 8zm0 0"/><path d="m96 240h32v16h-32zm0 0"/><path d="m440 0h-400c-22.082031.0273438-39.9726562 17.917969-40 40v304c.0273438 22.082031 17.917969 39.972656 40 40h134.9375l-6 48h-16.9375c-13.253906 0-24 10.746094-24 24s10.746094 24 24 24h176c13.253906 0 24-10.746094 24-24s-10.746094-24-24-24h-16.9375l-6-48h134.9375c22.082031-.027344 39.972656-17.917969 40-40v-304c-.027344-22.082031-17.917969-39.9726562-40-40zm-400 16h400c13.253906 0 24 10.746094 24 24v24h-448v-24c0-13.253906 10.746094-24 24-24zm424 64v224h-448v-224zm-128 376c0 4.417969-3.582031 8-8 8h-176c-4.417969 0-8-3.582031-8-8s3.582031-8 8-8h176c4.417969 0 8 3.582031 8 8zm-41.0625-24h-109.875l6-48h97.875zm145.0625-64h-400c-13.253906 0-24-10.746094-24-24v-24h448v24c0 13.253906-10.746094 24-24 24zm0 0"/><path d="m416 336h16v16h-16zm0 0"/><path d="m48 32h16v16h-16zm0 0"/><path d="m80 32h16v16h-16zm0 0"/><path d="m112 32h16v16h-16zm0 0"/></svg>