<svg height="512" viewBox="0 0 64 64" width="512" xmlns="http://www.w3.org/2000/svg"><g id="Payment-Online-Cash-Financial-Laptop"><path d="m32 16a5 5 0 1 0 -5-5 5.006 5.006 0 0 0 5 5zm0-8a3 3 0 1 1 -3 3 3 3 0 0 1 3-3z"/><path d="m61.923 54.615-4.923-11.815v-29.8a3 3 0 0 0 -3-3h-6v-6a2 2 0 0 0 -2-2h-28a2 2 0 0 0 -2 2v6h-6a3 3 0 0 0 -3 3v29.8l-4.923 11.815a1 1 0 0 0 -.077.385v4a3 3 0 0 0 3 3h54a3 3 0 0 0 3-3v-4a1 1 0 0 0 -.077-.385zm-21.305-.615-1.718-3.447a1 1 0 0 0 -.9-.553h-12a1 1 0 0 0 -.895.553l-1.723 3.447h-18.882l4.167-10h46.666l4.167 10zm-2.236 0h-12.764l1-2h10.764zm-16.382-30h-4v-1h4zm-4-8.874a4.007 4.007 0 0 1 2.859 2.874h-2.859zm4 5.874h-4v-1h4zm.877-4.121a2.946 2.946 0 0 0 -.188.23 6.011 6.011 0 0 0 -4.689-4.019v-4.18a6.008 6.008 0 0 0 4.91-4.91h18.18a6.008 6.008 0 0 0 4.91 4.91v4.18a6.008 6.008 0 0 0 -4.91 4.91h-13.271a2.894 2.894 0 0 0 -.7-1.111 2.973 2.973 0 0 0 -2.119-.889 2.971 2.971 0 0 0 -2.122.879zm5.123 4.121v-1h18v1zm-4-2a.991.991 0 0 1 .293-.709.978.978 0 0 1 .7-.293.9.9 0 0 1 .722.306.988.988 0 0 1 .3.7v3 1a1 1 0 0 0 1 1 4.88 4.88 0 0 1 2.326.584 4.4 4.4 0 0 1 .43.253 5.051 5.051 0 0 1 1.873 2.258 4.862 4.862 0 0 1 .356 1.901l2 .013a6.838 6.838 0 0 0 -.525-2.689c-.047-.112-.112-.213-.164-.322h6.689v9.998h-14v-4a1 1 0 0 0 -.105-.446l-1.895-3.789zm7.872 5a6.973 6.973 0 0 0 -1.015-.834c-.093-.061-.186-.109-.28-.166h15.423v1zm11.269-6a4 4 0 0 1 2.859-2.858v2.858zm2.859-11.142a4 4 0 0 1 -2.858-2.858h2.858zm-25.142-2.858a4 4 0 0 1 -2.858 2.858v-2.858zm-11.858 9a1 1 0 0 1 1-1h6v12a2 2 0 0 0 2 2h4v2a1 1 0 0 0 .105.447l1.895 3.787v4.766a1 1 0 0 0 1 1h16a1 1 0 0 0 1-1v-11h4a2 2 0 0 0 2-2v-12h6a1 1 0 0 1 1 1v29h-46zm50 47h-54a1 1 0 0 1 -1-1v-3h56v3a1 1 0 0 1 -1 1z"/><path d="m10 50h2v2h-2z"/><path d="m14 50h2v2h-2z"/><path d="m48 50h2v2h-2z"/><path d="m52 50h2v2h-2z"/><path d="m15 46h2v2h-2z"/><path d="m11 46h2v2h-2z"/><path d="m19 46h2v2h-2z"/><path d="m23 46h2v2h-2z"/><path d="m27 46h2v2h-2z"/><path d="m31 46h2v2h-2z"/><path d="m35 46h2v2h-2z"/><path d="m39 46h2v2h-2z"/><path d="m43 46h2v2h-2z"/><path d="m47 46h2v2h-2z"/><path d="m51 46h2v2h-2z"/><path d="m18 50h4v2h-4z"/><path d="m42 50h4v2h-4z"/><path d="m11 32h8v2h-8z"/><path d="m11 36h8v2h-8z"/><path d="m15 28h4v2h-4z"/><path d="m45 36h8v2h-8z"/><path d="m45 32h8v2h-8z"/><path d="m45 28h8v2h-8z"/><path d="m11 28h2v2h-2z"/></g></svg>