<?xml version="1.0" encoding="iso-8859-1"?>
<!-- Generator: Adobe Illustrator 19.0.0, SVG Export Plug-In . SVG Version: 6.00 Build 0)  -->
<svg version="1.1" id="Capa_1" xmlns="http://www.w3.org/2000/svg" xmlns:xlink="http://www.w3.org/1999/xlink" x="0px" y="0px"
	 viewBox="0 0 480 480" style="enable-background:new 0 0 480 480;" xml:space="preserve">
<g>
	<g>
		<path d="M456,128H264V32c0-17.673-14.327-32-32-32H32C14.327,0,0,14.327,0,32v416c0,17.673,14.327,32,32,32h200
			c17.673,0,32-14.327,32-32v-96h192c13.255,0,24-10.745,24-24V152C480,138.745,469.255,128,456,128z M16,32c0-8.837,7.163-16,16-16
			h200c8.837,0,16,7.163,16,16v96h-16V72c0-4.418-3.582-8-8-8H40c-4.418,0-8,3.582-8,8v120c0,4.418,3.582,8,8,8h96v16H16V32z
			 M138.176,337.864c1.864,4.118,4.847,7.629,8.608,10.136H144c0,6.627-5.373,12-12,12c-6.627,0-12-5.373-12-12
			c0-6.627,5.373-12,12-12C134.192,336.035,136.331,336.681,138.176,337.864z M136,287.288c-6.234,2.249-13.111-0.982-15.36-7.217
			s0.982-13.111,7.217-15.36c1.328-0.479,2.731-0.72,4.143-0.712c1.365,0.008,2.718,0.251,4,0.72V287.288z M136,152v32H48V80h168v48
			h-56C146.745,128,136,138.745,136,152z M248,448c0,8.837-7.163,16-16,16H32c-8.837,0-16-7.163-16-16V232h120v16.32
			c-1.324-0.203-2.661-0.31-4-0.32c-15.464,0-28,12.536-28,28c0,15.464,12.536,28,28,28c1.339-0.01,2.676-0.117,4-0.32v16.64
			c-1.324-0.203-2.661-0.31-4-0.32c-15.464-0.062-28.05,12.423-28.113,27.887c-0.062,15.464,12.423,28.05,27.887,28.113
			c13.961,0.056,25.831-10.181,27.826-24c0.136,0,0.264,0.04,0.4,0.04h16.408c2.113,15.243,16.183,25.887,31.427,23.773
			c12.351-1.712,22.061-11.422,23.773-23.773H248V448z M192.736,352h22.528c-2.167,6.221-8.967,9.507-15.188,7.34
			C196.637,358.142,193.934,355.439,192.736,352z M464,328c0,4.418-3.582,8-8,8H160c-4.418,0-8-3.582-8-8V152c0-4.418,3.582-8,8-8
			h296c4.418,0,8,3.582,8,8V328z"/>
	</g>
</g>
<g>
	<g>
		<path d="M60,248c-15.464,0-28,12.536-28,28c0,15.464,12.536,28,28,28s28-12.536,28-28C88,260.536,75.464,248,60,248z M60,288
			c-6.627,0-12-5.373-12-12c0-6.627,5.373-12,12-12s12,5.373,12,12C72,282.627,66.627,288,60,288z"/>
	</g>
</g>
<g>
	<g>
		<path d="M60,320c-15.464,0-28,12.536-28,28c0,15.464,12.536,28,28,28s28-12.536,28-28C88,332.536,75.464,320,60,320z M60,360
			c-6.627,0-12-5.373-12-12c0-6.627,5.373-12,12-12s12,5.373,12,12C72,354.627,66.627,360,60,360z"/>
	</g>
</g>
<g>
	<g>
		<path d="M60,392c-15.464,0-28,12.536-28,28c0,15.464,12.536,28,28,28s28-12.536,28-28C88,404.536,75.464,392,60,392z M60,432
			c-6.627,0-12-5.373-12-12c0-6.627,5.373-12,12-12s12,5.373,12,12C72,426.627,66.627,432,60,432z"/>
	</g>
</g>
<g>
	<g>
		<path d="M132,392c-15.464,0-28,12.536-28,28c0,15.464,12.536,28,28,28s28-12.536,28-28C160,404.536,147.464,392,132,392z M132,432
			c-6.627,0-12-5.373-12-12c0-6.627,5.373-12,12-12c6.627,0,12,5.373,12,12C144,426.627,138.627,432,132,432z"/>
	</g>
</g>
<g>
	<g>
		<path d="M204,392c-15.464,0-28,12.536-28,28c0,15.464,12.536,28,28,28s28-12.536,28-28C232,404.536,219.464,392,204,392z M204,432
			c-6.627,0-12-5.373-12-12c0-6.627,5.373-12,12-12c6.627,0,12,5.373,12,12C216,426.627,210.627,432,204,432z"/>
	</g>
</g>
<g>
	<g>
		<rect x="32" y="32" width="200" height="16"/>
	</g>
</g>
<g>
	<g>
		<path d="M420.3,171.856c-5.055-2.549-10.639-3.87-16.3-3.856c-5.608,0-11.137,1.315-16.144,3.84
			c-4.917-2.49-10.345-3.804-15.856-3.84c-19.882,0-36,16.118-36,36s16.118,36,36,36c5.521-0.034,10.958-1.354,15.88-3.856
			c17.753,8.952,39.401,1.818,48.354-15.934C445.186,202.457,438.052,180.808,420.3,171.856z M372,224c-11.046,0-20-8.954-20-20
			s8.954-20,20-20c11.046,0,20,8.954,20,20S383.046,224,372,224z M404,224c-0.65-0.063-1.296-0.16-1.936-0.288
			c7.941-11.999,7.912-27.59-0.072-39.56C402.656,184.088,403.32,184,404,184c11.046,0,20,8.954,20,20S415.046,224,404,224z"/>
	</g>
</g>
<g>
	<g>
		<rect x="176" y="168" width="24" height="16"/>
	</g>
</g>
<g>
	<g>
		<rect x="216" y="168" width="16" height="24"/>
	</g>
</g>
<g>
	<g>
		<rect x="176" y="200" width="24" height="16"/>
	</g>
</g>
<g>
	<g>
		<rect x="216" y="200" width="16" height="16"/>
	</g>
</g>
<g>
	<g>
		<rect x="176" y="296" width="80" height="16"/>
	</g>
</g>
<g>
	<g>
		<rect x="272" y="296" width="80" height="16"/>
	</g>
</g>
<g>
	<g>
		<rect x="176" y="256" width="48" height="16"/>
	</g>
</g>
<g>
	<g>
		<rect x="240" y="256" width="48" height="16"/>
	</g>
</g>
<g>
	<g>
		<rect x="304" y="256" width="48" height="16"/>
	</g>
</g>
<g>
	<g>
		<rect x="368" y="256" width="48" height="16"/>
	</g>
</g>
<g>
</g>
<g>
</g>
<g>
</g>
<g>
</g>
<g>
</g>
<g>
</g>
<g>
</g>
<g>
</g>
<g>
</g>
<g>
</g>
<g>
</g>
<g>
</g>
<g>
</g>
<g>
</g>
<g>
</g>
</svg>
